<svg width="9" height="16" viewBox="0 0 9 16" fill="none" xmlns="http://www.w3.org/2000/svg">
<path d="M3.95668 8.35413C3.91012 8.30768 3.87317 8.25251 3.84797 8.19176C3.82276 8.13102 3.80979 8.0659 3.80979 8.00013C3.80979 7.93436 3.82276 7.86924 3.84797 7.80849C3.87317 7.74775 3.91012 7.69257 3.95668 7.64613L8.54267 3.06113C8.82407 2.77986 8.98221 2.39834 8.9823 2.00048C8.98239 1.60262 8.82443 1.22102 8.54317 0.939627C8.26191 0.658232 7.88039 0.500094 7.48253 0.5C7.08467 0.499906 6.70307 0.657865 6.42168 0.939127L1.83568 5.52513C1.18045 6.18216 0.8125 7.07221 0.8125 8.00013C0.8125 8.92804 1.18045 9.81809 1.83568 10.4751L6.42168 15.0611C6.70307 15.3424 7.08467 15.5003 7.48253 15.5003C7.88039 15.5002 8.26191 15.342 8.54317 15.0606C8.82443 14.7792 8.98239 14.3976 8.9823 13.9998C8.98221 13.6019 8.82407 13.2204 8.54267 12.9391L3.95668 8.35413Z" fill="white"/>
</svg>
